<svg class="lds-spinner"  xmlns="http://www.w3.org/2000/svg" xmlns:xlink="http://www.w3.org/1999/xlink" viewBox="0 0 100 100" preserveAspectRatio="xMidYMid" style="background: none;"><g transform="rotate(0 50 50)">
  <rect x="49" y="22.5" rx="0.98" ry="0.45" width="2" height="5" fill="currentColor">
    <animate attributeName="opacity" values="1;0" keyTimes="0;1" dur="0.3s" begin="-0.28500000000000003s" repeatCount="indefinite"></animate>
  </rect>
</g><g transform="rotate(18 50 50)">
  <rect x="49" y="22.5" rx="0.98" ry="0.45" width="2" height="5" fill="currentColor">
    <animate attributeName="opacity" values="1;0" keyTimes="0;1" dur="0.3s" begin="-0.26999999999999996s" repeatCount="indefinite"></animate>
  </rect>
</g><g transform="rotate(36 50 50)">
  <rect x="49" y="22.5" rx="0.98" ry="0.45" width="2" height="5" fill="currentColor">
    <animate attributeName="opacity" values="1;0" keyTimes="0;1" dur="0.3s" begin="-0.255s" repeatCount="indefinite"></animate>
  </rect>
</g><g transform="rotate(54 50 50)">
  <rect x="49" y="22.5" rx="0.98" ry="0.45" width="2" height="5" fill="currentColor">
    <animate attributeName="opacity" values="1;0" keyTimes="0;1" dur="0.3s" begin="-0.24s" repeatCount="indefinite"></animate>
  </rect>
</g><g transform="rotate(72 50 50)">
  <rect x="49" y="22.5" rx="0.98" ry="0.45" width="2" height="5" fill="currentColor">
    <animate attributeName="opacity" values="1;0" keyTimes="0;1" dur="0.3s" begin="-0.225s" repeatCount="indefinite"></animate>
  </rect>
</g><g transform="rotate(90 50 50)">
  <rect x="49" y="22.5" rx="0.98" ry="0.45" width="2" height="5" fill="currentColor">
    <animate attributeName="opacity" values="1;0" keyTimes="0;1" dur="0.3s" begin="-0.21000000000000002s" repeatCount="indefinite"></animate>
  </rect>
</g><g transform="rotate(108 50 50)">
  <rect x="49" y="22.5" rx="0.98" ry="0.45" width="2" height="5" fill="currentColor">
    <animate attributeName="opacity" values="1;0" keyTimes="0;1" dur="0.3s" begin="-0.195s" repeatCount="indefinite"></animate>
  </rect>
</g><g transform="rotate(126 50 50)">
  <rect x="49" y="22.5" rx="0.98" ry="0.45" width="2" height="5" fill="currentColor">
    <animate attributeName="opacity" values="1;0" keyTimes="0;1" dur="0.3s" begin="-0.18s" repeatCount="indefinite"></animate>
  </rect>
</g><g transform="rotate(144 50 50)">
  <rect x="49" y="22.5" rx="0.98" ry="0.45" width="2" height="5" fill="currentColor">
    <animate attributeName="opacity" values="1;0" keyTimes="0;1" dur="0.3s" begin="-0.16499999999999998s" repeatCount="indefinite"></animate>
  </rect>
</g><g transform="rotate(162 50 50)">
  <rect x="49" y="22.5" rx="0.98" ry="0.45" width="2" height="5" fill="currentColor">
    <animate attributeName="opacity" values="1;0" keyTimes="0;1" dur="0.3s" begin="-0.15s" repeatCount="indefinite"></animate>
  </rect>
</g><g transform="rotate(180 50 50)">
  <rect x="49" y="22.5" rx="0.98" ry="0.45" width="2" height="5" fill="currentColor">
    <animate attributeName="opacity" values="1;0" keyTimes="0;1" dur="0.3s" begin="-0.13499999999999998s" repeatCount="indefinite"></animate>
  </rect>
</g><g transform="rotate(198 50 50)">
  <rect x="49" y="22.5" rx="0.98" ry="0.45" width="2" height="5" fill="currentColor">
    <animate attributeName="opacity" values="1;0" keyTimes="0;1" dur="0.3s" begin="-0.12s" repeatCount="indefinite"></animate>
  </rect>
</g><g transform="rotate(216 50 50)">
  <rect x="49" y="22.5" rx="0.98" ry="0.45" width="2" height="5" fill="currentColor">
    <animate attributeName="opacity" values="1;0" keyTimes="0;1" dur="0.3s" begin="-0.10500000000000001s" repeatCount="indefinite"></animate>
  </rect>
</g><g transform="rotate(234 50 50)">
  <rect x="49" y="22.5" rx="0.98" ry="0.45" width="2" height="5" fill="currentColor">
    <animate attributeName="opacity" values="1;0" keyTimes="0;1" dur="0.3s" begin="-0.09s" repeatCount="indefinite"></animate>
  </rect>
</g><g transform="rotate(252 50 50)">
  <rect x="49" y="22.5" rx="0.98" ry="0.45" width="2" height="5" fill="currentColor">
    <animate attributeName="opacity" values="1;0" keyTimes="0;1" dur="0.3s" begin="-0.075s" repeatCount="indefinite"></animate>
  </rect>
</g><g transform="rotate(270 50 50)">
  <rect x="49" y="22.5" rx="0.98" ry="0.45" width="2" height="5" fill="currentColor">
    <animate attributeName="opacity" values="1;0" keyTimes="0;1" dur="0.3s" begin="-0.06s" repeatCount="indefinite"></animate>
  </rect>
</g><g transform="rotate(288 50 50)">
  <rect x="49" y="22.5" rx="0.98" ry="0.45" width="2" height="5" fill="currentColor">
    <animate attributeName="opacity" values="1;0" keyTimes="0;1" dur="0.3s" begin="-0.045s" repeatCount="indefinite"></animate>
  </rect>
</g><g transform="rotate(306 50 50)">
  <rect x="49" y="22.5" rx="0.98" ry="0.45" width="2" height="5" fill="currentColor">
    <animate attributeName="opacity" values="1;0" keyTimes="0;1" dur="0.3s" begin="-0.03s" repeatCount="indefinite"></animate>
  </rect>
</g><g transform="rotate(324 50 50)">
  <rect x="49" y="22.5" rx="0.98" ry="0.45" width="2" height="5" fill="currentColor">
    <animate attributeName="opacity" values="1;0" keyTimes="0;1" dur="0.3s" begin="-0.015s" repeatCount="indefinite"></animate>
  </rect>
</g><g transform="rotate(342 50 50)">
  <rect x="49" y="22.5" rx="0.98" ry="0.45" width="2" height="5" fill="currentColor">
    <animate attributeName="opacity" values="1;0" keyTimes="0;1" dur="0.3s" begin="0s" repeatCount="indefinite"></animate>
  </rect>
</g></svg>